<?xml version="1.0" standalone="no"?>
<!DOCTYPE svg PUBLIC "-//W3C//DTD SVG 20010904//EN"
 "http://www.w3.org/TR/2001/REC-SVG-20010904/DTD/svg10.dtd">
<svg version="1.0" xmlns="http://www.w3.org/2000/svg"
 width="4000.000000pt" height="4000.000000pt" viewBox="0 0 4000.000000 4000.000000"
 preserveAspectRatio="xMidYMid meet">
<metadata>
Created by potrace 1.14, written by Peter Selinger 2001-2017
</metadata>
<g transform="translate(0.000000,4000.000000) scale(0.100000,-0.100000)"
fill="#000000" stroke="none">
<path d="M5860 20055 l0 -8875 2435 0 2435 0 0 2568 c0 2433 1 2568 18 2583 9
9 69 70 132 135 63 66 215 223 337 350 122 126 249 258 283 294 61 64 161 167
438 454 79 81 145 146 146 144 2 -2 96 -142 211 -313 247 -367 584 -867 781
-1160 79 -115 276 -408 439 -650 163 -242 427 -633 587 -870 159 -236 355
-527 434 -645 343 -508 543 -805 749 -1110 305 -452 533 -790 864 -1282 157
-233 296 -440 310 -460 l26 -37 5003 -1 5002 0 0 2725 0 2725 1463 1 c1684 2
1680 1 1967 25 308 24 675 86 960 160 709 184 1380 522 1955 987 33 27 67 54
75 60 23 18 210 177 255 217 56 50 361 355 421 420 134 148 359 426 459 570
674 961 1062 2003 1164 3125 28 303 33 728 11 1005 -111 1470 -795 2935 -1870
4010 -463 463 -943 811 -1535 1114 -627 322 -1309 519 -1995 576 -74 6 -153
14 -175 17 -22 4 -3071 8 -6775 10 l-6735 3 -642 -802 c-353 -442 -651 -814
-662 -828 -42 -53 -285 -357 -312 -390 -16 -19 -88 -109 -160 -200 -72 -91
-144 -181 -160 -200 -15 -19 -159 -199 -320 -400 -160 -201 -304 -381 -320
-400 -15 -19 -131 -163 -256 -320 -125 -157 -233 -292 -240 -300 -7 -8 -323
-404 -704 -880 -380 -476 -703 -879 -718 -897 -14 -18 -224 -280 -466 -583
l-440 -551 -3 3376 -2 3375 -2435 0 -2435 0 0 -8875z m19520 4620 l3755 0 100
-28 c364 -102 603 -285 792 -605 133 -225 213 -495 249 -842 14 -134 13 -701
-1 -836 -45 -425 -143 -724 -330 -1005 -167 -251 -426 -422 -710 -468 -52 -8
-1045 -10 -3842 -7 l-3773 4 -2 -4528 -3 -4527 -440 624 c-242 344 -456 649
-476 677 -55 79 -255 362 -392 556 -68 96 -226 321 -352 500 -125 179 -269
384 -320 455 -51 72 -206 292 -345 490 -140 198 -466 662 -725 1030 -550 781
-457 649 -877 1245 -666 946 -1215 1726 -1254 1781 -21 31 -256 364 -521 740
-265 376 -495 702 -510 724 -15 22 -72 102 -126 179 -54 76 -96 144 -93 151 4
11 468 588 620 771 28 34 101 124 163 200 62 77 187 231 278 344 92 113 179
221 195 240 16 19 100 123 187 230 231 285 331 408 713 880 190 234 352 434
362 445 28 33 1627 2005 1800 2220 89 110 164 202 167 205 3 3 71 86 151 185
80 99 152 189 162 200 9 11 115 142 235 290 675 834 867 1070 872 1075 4 3 49
59 102 125 53 66 158 197 234 290 76 94 149 185 164 202 l26 33 5 -2123 5
-2122 3755 0z"/>
</g>
</svg>
